<?xml version="1.0" standalone="no"?>
<!DOCTYPE svg PUBLIC "-//W3C//DTD SVG 20010904//EN"
 "http://www.w3.org/TR/2001/REC-SVG-20010904/DTD/svg10.dtd">
<svg version="1.0" xmlns="http://www.w3.org/2000/svg"
 width="512.000000pt" height="512.000000pt" viewBox="0 0 512.000000 512.000000"
 preserveAspectRatio="xMidYMid meet">
<metadata>
Created by potrace 1.11, written by Peter Selinger 2001-2013
</metadata>
<g transform="translate(0.000000,512.000000) scale(0.100000,-0.100000)"
fill="#000000" stroke="none">
<path d="M695 4616 c-73 -41 -144 -97 -221 -175 -95 -94 -98 -100 -139 -256
-53 -200 -59 -257 -35 -305 24 -47 22 -71 -25 -230 -33 -116 -70 -261 -79
-313 -3 -15 -10 -53 -15 -85 -12 -69 -18 -102 -26 -162 -3 -25 -8 -56 -10 -70
-22 -155 -33 -380 -36 -740 -3 -362 7 -458 59 -554 45 -83 153 -152 267 -170
46 -8 180 -9 210 -2 294 67 312 63 302 -59 -4 -38 -8 -81 -11 -95 -2 -14 -7
-100 -11 -192 -3 -92 -8 -176 -10 -186 -6 -31 -18 -247 -19 -352 -2 -104 8
-151 35 -176 26 -24 51 -11 122 66 83 89 97 119 84 169 -8 28 -6 69 7 162 20
140 21 143 30 219 4 30 9 66 11 80 6 35 15 142 19 230 4 84 35 217 65 282 24
53 45 76 119 129 31 23 81 63 111 88 30 25 50 37 44 27 -9 -17 -1 -59 18 -91
3 -5 16 -45 29 -87 23 -75 24 -77 39 -55 56 82 83 68 131 -69 50 -143 74 -187
120 -227 76 -65 206 -79 308 -32 30 14 62 25 71 25 70 0 287 205 351 330 11
21 43 69 71 107 29 37 80 111 115 164 83 126 135 152 137 67 2 -71 -11 -138
-73 -393 -42 -169 -46 -191 -56 -268 -9 -69 1 -94 41 -111 40 -17 82 -12 109
12 36 33 135 170 320 447 103 154 209 304 236 332 26 29 67 77 91 107 24 30
53 57 64 60 23 6 46 -12 47 -40 1 -19 -10 -157 -17 -204 -2 -14 -6 -52 -10
-85 -11 -103 -15 -125 -61 -322 -67 -294 -67 -375 -1 -387 47 -9 77 0 110 31
26 25 204 286 221 323 3 8 20 35 36 60 16 25 37 58 46 74 31 56 151 211 187
243 91 79 137 52 284 -165 120 -180 194 -242 286 -242 48 0 100 29 177 99 l44
40 -33 108 c-36 120 -43 132 -65 114 -34 -28 -97 41 -161 174 -25 52 -45 97
-45 99 0 3 -5 17 -12 33 -6 15 -12 30 -13 33 -1 3 -7 18 -13 33 -7 16 -12 30
-12 33 0 11 -70 112 -102 146 -31 33 -39 37 -76 33 -23 -2 -61 -14 -84 -26
-62 -31 -276 -252 -324 -336 -66 -115 -90 -80 -48 70 12 45 27 116 34 157 6
41 14 86 16 100 3 14 7 102 9 195 5 196 -7 254 -58 285 -86 53 -204 -52 -438
-388 -142 -206 -267 -362 -288 -362 -17 0 -17 33 1 115 33 153 43 247 42 371
-1 96 -24 154 -67 168 -23 9 -39 4 -104 -29 -81 -42 -74 -35 -231 -245 -43
-58 -121 -161 -173 -230 -95 -125 -183 -260 -240 -368 -43 -83 -155 -156 -284
-187 -65 -16 -125 1 -182 50 -43 36 -55 66 -58 140 -3 56 13 88 87 185 131
172 246 365 296 495 11 28 63 247 64 270 2 25 -14 125 -28 180 -27 103 -62
136 -148 139 -119 5 -182 -44 -308 -243 -51 -80 -103 -166 -115 -193 -59 -127
-136 -381 -147 -483 -3 -27 -8 -77 -12 -110 -9 -84 -20 -98 -28 -36 -4 30 -15
60 -26 71 -18 18 -22 18 -62 4 -23 -8 -49 -20 -58 -28 -8 -7 -41 -27 -72 -45
-62 -35 -114 -43 -129 -20 -10 13 -6 179 4 196 2 4 8 37 11 73 4 36 9 74 12
85 2 11 6 36 8 55 3 19 12 80 21 135 22 136 23 144 30 195 3 25 10 70 15 100
5 30 11 72 14 93 9 59 17 108 21 126 40 175 45 222 30 258 -25 58 -137 134
-217 147 -44 7 -79 -16 -122 -82 -43 -66 -53 -99 -60 -217 -3 -49 -12 -144
-21 -210 -8 -66 -17 -149 -20 -185 -4 -36 -8 -81 -10 -100 -1 -19 -6 -84 -9
-145 -9 -148 -16 -241 -22 -268 -2 -12 -7 -67 -10 -122 -4 -55 -8 -107 -9
-115 -2 -8 -4 -32 -4 -53 -1 -52 -6 -53 -216 -72 -57 -5 -91 -1 -180 20 -60
15 -122 34 -137 43 -58 34 -96 114 -93 197 2 61 16 208 20 215 2 3 6 26 9 51
3 26 15 86 25 135 11 49 31 143 45 209 71 334 90 419 145 650 70 294 87 361
176 680 71 257 78 313 40 355 -21 23 -85 26 -120 6z m1473 -1878 c28 -36 -5
-136 -76 -234 -29 -40 -52 -77 -52 -83 0 -18 -49 -63 -60 -56 -15 9 -12 58 6
112 27 79 93 206 125 241 33 35 42 38 57 20z"/>
</g>
</svg>
